<svg xmlns="http://www.w3.org/2000/svg" width="24.909" height="24.836" viewBox="0 0 24.909 24.836">
  <g id="dark_light-button" data-name="dark/light-button" transform="translate(-43.906 -5.035)">
    <g id="Group_4420" data-name="Group 4420" transform="translate(43.906 5.035)">
      <g id="Group_4419" data-name="Group 4419" transform="translate(0 0)">
        <path id="Path_1172" data-name="Path 1172" d="M19.476,943.414a7.275,7.275,0,1,0,7.275,7.275A7.274,7.274,0,0,0,19.476,943.414Z" transform="translate(-7.025 -938.266)" fill="none" stroke="#f8f8f8" stroke-width="1"/>
        <path id="Path_1173" data-name="Path 1173" d="M17.368,936.16a.432.432,0,0,0-.053.009.424.424,0,0,0-.371.433v3.364c.142-.007.281-.018.424-.018s.285.011.424.018V936.6a.424.424,0,0,0-.424-.442ZM8.83,939.683a.424.424,0,0,0-.256.724l2.384,2.384c.192-.211.389-.409.6-.6l-2.384-2.384a.424.424,0,0,0-.344-.124Zm16.978,0a.424.424,0,0,0-.256.124l-2.384,2.384c.21.19.419.382.609.592l2.375-2.375a.424.424,0,0,0-.344-.724ZM5.272,948.159a.426.426,0,0,0,.088.848H8.733c-.007-.138-.018-.275-.018-.415s.011-.291.018-.433H5.272Zm20.74,0c.007.141.009.289.009.433s0,.277-.009.415h3.364a.424.424,0,0,0,0-.848Zm-15.054,6.216-2.384,2.384a.425.425,0,1,0,.6.6l2.375-2.384c-.21-.19-.4-.391-.592-.6Zm12.82.018c-.189.208-.392.4-.6.592l2.375,2.375a.425.425,0,0,0,.6-.6l-2.375-2.366Zm-6.834,2.817v3.364a.424.424,0,1,0,.848,0v-3.364c-.139.007-.283.018-.424.018S17.086,957.215,16.944,957.208Z" transform="translate(-4.89 -936.16)" fill="#f8f8f8"/>
      </g>
    </g>
  </g>
</svg>
