<svg xmlns="http://www.w3.org/2000/svg" width="121.216" height="39.697" viewBox="0 0 121.216 39.697">
  <g id="commb-logo" transform="translate(0 0)">
    <path id="Path_1158" data-name="Path 1158" d="M0,11.376a12.206,12.206,0,0,1,.723-4.1A11.358,11.358,0,0,1,2.828,3.631,10.793,10.793,0,0,1,6.234,1.012,10.136,10.136,0,0,1,10.83,0a9.439,9.439,0,0,1,5.206,1.382,8.661,8.661,0,0,1,3.214,3.6l-1.8,1.092a6.947,6.947,0,0,0-1.318-1.9A7.09,7.09,0,0,0,12.6,2.233a8.964,8.964,0,0,0-1.9-.209A7.631,7.631,0,0,0,7.07,2.86,8.358,8.358,0,0,0,4.419,5.045,9.529,9.529,0,0,0,2.8,8.082,11.038,11.038,0,0,0,2.25,11.5a10.143,10.143,0,0,0,.659,3.631,10.3,10.3,0,0,0,1.8,3.069,8.644,8.644,0,0,0,2.7,2.121,7.407,7.407,0,0,0,3.39.787,8.511,8.511,0,0,0,1.976-.241,7.609,7.609,0,0,0,1.961-.771,8.259,8.259,0,0,0,1.751-1.318,6.818,6.818,0,0,0,1.35-1.912l1.864.964A6.985,6.985,0,0,1,18.157,20.1a10.15,10.15,0,0,1-2.217,1.655,11.054,11.054,0,0,1-2.587,1.028,10.692,10.692,0,0,1-2.683.354A9.123,9.123,0,0,1,6.363,22.11a11.289,11.289,0,0,1-3.375-2.683,12.437,12.437,0,0,1-2.2-3.76A12.146,12.146,0,0,1,0,11.376" transform="translate(0 0)" fill="#e50019"/>
    <path id="Path_1159" data-name="Path 1159" d="M174.608,23.227V4.492l-8.323,14.493h-1.318L156.612,4.492V23.227h-2.218V.41h2.282l8.934,15.618L174.544.41h2.281V23.227Z" transform="translate(-106.095 -0.282)" fill="#fff"/>
    <path id="Path_1160" data-name="Path 1160" d="M262.747,23.227V4.492l-8.324,14.493h-1.317L244.751,4.492V23.227h-2.217V.41h2.281l8.934,15.618L262.682.41h2.282V23.227Z" transform="translate(-166.661 -0.282)" fill="#fff"/>
    <path id="Path_1161" data-name="Path 1161" d="M349.853,17.346a5.412,5.412,0,0,1-.514,2.362,5.956,5.956,0,0,1-1.382,1.864,6.238,6.238,0,0,1-2.025,1.221,6.987,6.987,0,0,1-2.474.434H332.725V.41h10.959a4.506,4.506,0,0,1,2.153.514,5.383,5.383,0,0,1,1.639,1.334,6.121,6.121,0,0,1,1.045,1.864,6.284,6.284,0,0,1,.369,2.1,5.981,5.981,0,0,1-.868,3.166,5.369,5.369,0,0,1-2.41,2.137,5.7,5.7,0,0,1,3.1,2.153,6.082,6.082,0,0,1,1.141,3.664M334.942,2.371v8.42h7.841a3.5,3.5,0,0,0,1.559-.354,4.136,4.136,0,0,0,2.073-2.266A4.411,4.411,0,0,0,346.7,6.58a4.881,4.881,0,0,0-.273-1.639,4.007,4.007,0,0,0-.771-1.334,3.805,3.805,0,0,0-1.189-.9,3.361,3.361,0,0,0-1.494-.337ZM347.6,16.96a4.673,4.673,0,0,0-.289-1.623,4.223,4.223,0,0,0-2.073-2.346,3.382,3.382,0,0,0-1.558-.369h-8.741v8.644h8.516a3.878,3.878,0,0,0,1.639-.354,4.059,4.059,0,0,0,1.318-.948,4.589,4.589,0,0,0,.868-1.382,4.265,4.265,0,0,0,.321-1.623" transform="translate(-228.638 -0.282)" fill="#fff"/>
    <path id="Path_1162" data-name="Path 1162" d="M78.877.054h-.064A12.2,12.2,0,0,0,66.629,12.265a16.723,16.723,0,0,0,2.39,7.828c2.26,3.556,8.863,18.457,9.831,19.6,0,0,.02.054.033.039.011.015.032-.039.032-.039.965-1.146,7.551-16.06,9.8-19.622a16.719,16.719,0,0,0,2.372-7.835A12.2,12.2,0,0,0,78.877.054m-.008,21.268a8.824,8.824,0,1,1,8.814-8.834,8.826,8.826,0,0,1-8.814,8.834" transform="translate(-45.785 -0.037)" fill="#e50019"/>
  </g>
</svg>
