<svg xmlns="http://www.w3.org/2000/svg" width="130.625" height="105.26" viewBox="0 0 130.625 105.26">
  <g id="graphic" transform="translate(-1152.844 -5850.332)">
    <path id="Path_1164" data-name="Path 1164" d="M73.373.054h-.035a6.716,6.716,0,0,0-6.709,6.724,9.208,9.208,0,0,0,1.316,4.311c1.244,1.958,4.88,10.163,5.414,10.793,0,0,.011.03.018.021.006.008.018-.021.018-.021.531-.631,4.158-8.844,5.4-10.8A9.207,9.207,0,0,0,80.1,6.762,6.716,6.716,0,0,0,73.373.054m0,11.711A4.859,4.859,0,1,1,78.222,6.9a4.86,4.86,0,0,1-4.853,4.865" transform="translate(1086.215 5850.278)" fill="#bf1116"/>
    <path id="Path_1167" data-name="Path 1167" d="M73.373.054h-.035a6.716,6.716,0,0,0-6.709,6.724,9.208,9.208,0,0,0,1.316,4.311c1.244,1.958,4.88,10.163,5.414,10.793,0,0,.011.03.018.021.006.008.018-.021.018-.021.531-.631,4.158-8.844,5.4-10.8A9.207,9.207,0,0,0,80.1,6.762,6.716,6.716,0,0,0,73.373.054m0,11.711A4.859,4.859,0,1,1,78.222,6.9a4.86,4.86,0,0,1-4.853,4.865" transform="translate(1086.215 5892.688)" fill="#bf1116"/>
    <path id="Path_1169" data-name="Path 1169" d="M73.373.054h-.035a6.716,6.716,0,0,0-6.709,6.724,9.208,9.208,0,0,0,1.316,4.311c1.244,1.958,4.88,10.163,5.414,10.793,0,0,.011.03.018.021.006.008.018-.021.018-.021.531-.631,4.158-8.844,5.4-10.8A9.207,9.207,0,0,0,80.1,6.762,6.716,6.716,0,0,0,73.373.054m0,11.711A4.859,4.859,0,1,1,78.222,6.9a4.86,4.86,0,0,1-4.853,4.865" transform="translate(1164.371 5892.688)" fill="#bf1116"/>
    <path id="Path_1170" data-name="Path 1170" d="M73.373.054h-.035a6.716,6.716,0,0,0-6.709,6.724,9.208,9.208,0,0,0,1.316,4.311c1.244,1.958,4.88,10.163,5.414,10.793,0,0,.011.03.018.021.006.008.018-.021.018-.021.531-.631,4.158-8.844,5.4-10.8A9.207,9.207,0,0,0,80.1,6.762,6.716,6.716,0,0,0,73.373.054m0,11.711A4.859,4.859,0,1,1,78.222,6.9a4.86,4.86,0,0,1-4.853,4.865" transform="translate(1164.371 5933.688)" fill="#bf1116"/>
    <path id="Path_1165" data-name="Path 1165" d="M73.373.054h-.035a6.716,6.716,0,0,0-6.709,6.724,9.208,9.208,0,0,0,1.316,4.311c1.244,1.958,4.88,10.163,5.414,10.793,0,0,.011.03.018.021.006.008.018-.021.018-.021.531-.631,4.158-8.844,5.4-10.8A9.207,9.207,0,0,0,80.1,6.762,6.716,6.716,0,0,0,73.373.054m0,11.711A4.859,4.859,0,1,1,78.222,6.9a4.86,4.86,0,0,1-4.853,4.865" transform="translate(1125.215 5850.278)" fill="#bf1116"/>
    <path id="Path_1166" data-name="Path 1166" d="M73.373.054h-.035a6.716,6.716,0,0,0-6.709,6.724,9.208,9.208,0,0,0,1.316,4.311c1.244,1.958,4.88,10.163,5.414,10.793,0,0,.011.03.018.021.006.008.018-.021.018-.021.531-.631,4.158-8.844,5.4-10.8A9.207,9.207,0,0,0,80.1,6.762,6.716,6.716,0,0,0,73.373.054m0,11.711A4.859,4.859,0,1,1,78.222,6.9a4.86,4.86,0,0,1-4.853,4.865" transform="translate(1125.215 5892.688)" fill="#bf1116"/>
    <path id="Path_1168" data-name="Path 1168" d="M73.373.054h-.035a6.716,6.716,0,0,0-6.709,6.724,9.208,9.208,0,0,0,1.316,4.311c1.244,1.958,4.88,10.163,5.414,10.793,0,0,.011.03.018.021.006.008.018-.021.018-.021.531-.631,4.158-8.844,5.4-10.8A9.207,9.207,0,0,0,80.1,6.762,6.716,6.716,0,0,0,73.373.054m0,11.711A4.859,4.859,0,1,1,78.222,6.9a4.86,4.86,0,0,1-4.853,4.865" transform="translate(1203.371 5892.688)" fill="#bf1116"/>
    <path id="Path_1171" data-name="Path 1171" d="M73.373.054h-.035a6.716,6.716,0,0,0-6.709,6.724,9.208,9.208,0,0,0,1.316,4.311c1.244,1.958,4.88,10.163,5.414,10.793,0,0,.011.03.018.021.006.008.018-.021.018-.021.531-.631,4.158-8.844,5.4-10.8A9.207,9.207,0,0,0,80.1,6.762,6.716,6.716,0,0,0,73.373.054m0,11.711A4.859,4.859,0,1,1,78.222,6.9a4.86,4.86,0,0,1-4.853,4.865" transform="translate(1203.371 5933.688)" fill="#bf1116"/>
  </g>
</svg>
