<svg xmlns="http://www.w3.org/2000/svg" xmlns:xlink="http://www.w3.org/1999/xlink" width="557" height="466" viewBox="0 0 557 466">
  <defs>
    <clipPath id="clip-path">
      <rect id="Rectangle_1443" data-name="Rectangle 1443" width="557" height="466" transform="translate(0 224)" fill="#fff" stroke="#707070" stroke-width="1"/>
    </clipPath>
    <clipPath id="clip-path-2">
      <rect id="Rectangle_1442" data-name="Rectangle 1442" width="1242.27" height="723.131" fill="none" stroke="#bf1116" stroke-width="1"/>
    </clipPath>
  </defs>
  <g id="program-bg-vector" transform="translate(0 -224)" clip-path="url(#clip-path)">
    <g id="Group_4413" data-name="Group 4413" transform="translate(171.669 1243.875) rotate(-135)">
      <g id="Group_4412" data-name="Group 4412" clip-path="url(#clip-path-2)">
        <path id="Path_1164" data-name="Path 1164" d="M36.074,645.3c81.851,24.634,151.134,34.759,224.776-13.531,33.492-21.963,61.641-54.416,102.086-63.771,53.668-12.413,113.136,22.357,157.97,46.783,24.684,13.448,50.212,38.83,77,47.859,20.158,6.794,36.758.649,56.2-6.82,53.062-20.381,97.6-45.877,155.079-53.151,120.818-15.292,310.593-3.52,372.251,119.93,57.253-58.178,89.209-160.174,24.328-227.309-32.421-33.544-144.974-43.479-118.2-107.94,9.171-22.074,31.459-37.188,41.662-59.005,11.729-25.076,7.169-49.867,3.788-76.477C1120.6,154.115,1155.52,81.675,1209.25,0c-67.838,19.912-111.255,55.506-170.174,90.074-45.011,26.409-82.622,22.361-129.123.009C854.9,63.619,809.754.615,745.344.926c-52.08.253-103.852,27.72-150.509,47.718S487.56,100.88,434.308,90.73c-48.943-9.327-77.833-58.2-125.926-73.8C207.866-15.678,100.6,47.244,0,53.019c1.367,59.837,22.52,95.3,60.672,139.617,54.141,62.9,137.871,135.671,45.414,204.654C67.618,425.99-30.977,457.544,12.53,521.21c11.048,16.162,33.081,22.263,44.913,37.156C85.283,593.409,61.643,614.42,36.074,645.3Z" transform="translate(0.268 0.268)" fill="none" stroke="#da3338" stroke-linecap="round" stroke-linejoin="round" stroke-width="0.25"/>
        <path id="Path_1165" data-name="Path 1165" d="M0,25.558c92.948-7.825,193.581-47.617,284.193-8.86,45.329,19.389,71.885,52.464,123.783,54.874,54.714,2.543,108.876-18.779,159.844-35.8,45.7-15.251,94.587-34.717,143.537-33.826,66.627,1.215,106.367,56.573,163.871,82.532,45.869,20.7,81.5,15.9,124.537-7.791,57.218-31.5,100.014-56.58,167.327-66.535" transform="translate(1.018 55.33)" fill="none" stroke="#da3338" stroke-linecap="round" stroke-linejoin="round" stroke-width="0.25"/>
        <path id="Path_1166" data-name="Path 1166" d="M0,12.743C90.194,2.4,179.827-13.267,266.9,20.812c46.683,18.269,79.179,41.686,131.222,40.4,55-1.365,108.388-18.146,161.1-32.262C604.075,16.94,650.983,3.78,697.877,7.6c58.995,4.806,93.485,47.891,145.208,71.448C887.04,99.057,923.168,93.3,965.167,72.952c60.735-29.426,104.6-44.647,173.86-44.356" transform="translate(4.268 91.004)" fill="none" stroke="#da3338" stroke-linecap="round" stroke-linejoin="round" stroke-width="0.25"/>
        <path id="Path_1167" data-name="Path 1167" d="M0,7.52C96.464-6.718,177.258-1.583,269.126,30.2c49.473,17.12,85.7,28.073,138.482,22.385,52.307-5.635,103.284-18.937,154.747-29.32,41.662-8.406,84.653-15.779,127.181-10.2,53.769,7.056,86.13,44.778,134.869,63.953,42.421,16.692,75.8,7.617,116.1-9.072,63.046-26.113,110.905-30.683,179.336-20.435" transform="translate(11.506 117.232)" fill="none" stroke="#da3338" stroke-linecap="round" stroke-linejoin="round" stroke-width="0.25"/>
        <path id="Path_1168" data-name="Path 1168" d="M0,10.34C56.878-.086,111.679-5.616,168.456,8.42c36.856,9.113,71.851,24.774,108.4,35.046,99.791,28.046,193.907-10.422,293.709-22.16,38.163-4.487,76.7-5.95,114.572,1.508,47.216,9.3,79.412,41.53,123.972,56.048,40.415,13.169,72.414-.178,110.258-13.805C984.847,41.482,1037.55,48,1104.32,66.6" transform="translate(24.221 136.453)" fill="none" stroke="#da3338" stroke-linecap="round" stroke-linejoin="round" stroke-width="0.25"/>
        <path id="Path_1169" data-name="Path 1169" d="M0,12.839c59.5-13.4,113.777-20.334,172.2-.345,38.662,13.225,73.72,33.358,114.363,41.016,96.847,18.247,192.415-36.492,290.55-36.567a365.365,365.365,0,0,1,101.45,14.275c41.8,12,78.257,42.361,120.618,49.447,37.471,6.267,66.82-13.032,101.03-24.191,65.875-21.489,123.635-4.283,187.042,20.244" transform="translate(43.895 159.924)" fill="none" stroke="#da3338" stroke-linecap="round" stroke-linejoin="round" stroke-width="0.25"/>
        <path id="Path_1170" data-name="Path 1170" d="M0,16.747C59.005.364,112.189-10.221,169.846,15.322c34.8,15.414,64.93,37.919,103.667,43.186,59.775,8.129,112.986-21.716,169.3-35.982C486.191,11.536,531.2,6.34,575.631,13.653,611.1,19.492,643.974,33.9,676.892,47.66c32.592,13.632,71.831,39.22,108.364,36.717,30.22-2.072,55.382-23.145,82.459-34.4,68.4-28.442,132.257-.971,195.7,28.86" transform="translate(72.022 188.801)" fill="none" stroke="#da3338" stroke-linecap="round" stroke-linejoin="round" stroke-width="0.25"/>
        <path id="Path_1171" data-name="Path 1171" d="M0,21.781C54.394,2.844,106.549-14.064,158.962,17.9c28.789,17.553,50.332,41.532,86.19,43.507,60.31,3.321,117.408-40.073,175.2-53.385,46.432-10.694,93.71-11.172,138.724,5.565,57.93,21.536,136.785,107.282,202.079,80.342C788.53,82.635,807.606,55.2,833.417,40.754,898.938,4.1,967.676,40.43,1027.542,71.842" transform="translate(110.141 226.32)" fill="none" stroke="#da3338" stroke-linecap="round" stroke-linejoin="round" stroke-width="0.25"/>
        <path id="Path_1172" data-name="Path 1172" d="M0,40.378c46.644-14.527,91.364-28.564,138.673-10.4,25.4,9.756,43.889,23.576,72.523,21.969C266.3,48.856,320.51,16.1,375.277,6.431c47.491-8.389,94.865-9.974,141.5,3.808,60.8,17.966,143.607,100.415,207.71,82.553,27.478-7.656,48.172-33.426,72.943-46.479C860.989,12.821,921.2,34.946,983.315,62.267" transform="translate(146.907 264.927)" fill="none" stroke="#da3338" stroke-linecap="round" stroke-linejoin="round" stroke-width="0.25"/>
        <path id="Path_1173" data-name="Path 1173" d="M0,54.962c42.633-9.824,84.559-19.156,128.411-13.495,25.836,3.336,47.649,8.68,73.987,4.673C302.02,30.98,392.208-14.894,496.072,4.857c34.849,6.627,67.223,21.307,98.9,36.745C624.694,56.087,661.04,84.445,695.193,85.23c32.965.754,63.074-24.862,92.129-36.82,61.883-25.472,116.6-12.1,178,10.248" transform="translate(147.91 294.257)" fill="none" stroke="#da3338" stroke-linecap="round" stroke-linejoin="round" stroke-width="0.25"/>
        <path id="Path_1174" data-name="Path 1174" d="M0,67.686c68.375-7.992,139-7.857,206.469-22.014,92.92-19.5,189.039-50.447,285.157-45.05,33.767,1.9,65.013,10.874,96,24.191C621.274,39.276,653.95,68.057,689.9,74.254c33.462,5.768,65.721-9.8,97.177-18.894,65-18.791,118.146-13.542,183.547,5.5" transform="translate(124.122 315.533)" fill="none" stroke="#da3338" stroke-linecap="round" stroke-linejoin="round" stroke-width="0.25"/>
        <path id="Path_1175" data-name="Path 1175" d="M0,81.866C168.76,83.7,331.039,19.282,498.571,1.333c30.814-3.3,59.273-.658,88.506,10.041C625.189,25.32,653.927,56.049,691.61,68.8c37.229,12.6,75.363,4.3,113.033-1.888C871.99,55.849,928.6,55.406,996.294,69.906" transform="translate(86.5 328.819)" fill="none" stroke="#da3338" stroke-linecap="round" stroke-linejoin="round" stroke-width="0.25"/>
        <path id="Path_1176" data-name="Path 1176" d="M0,96.948c53.934,7.587,103.355,9.224,155.6-7.939,35.206-11.566,68.313-28.7,104.627-36.989,45.048-10.281,92.054-6.447,137.608-14.047C437,31.44,473.472,17.8,511.579,7.478c26.342-7.135,50.52-10.84,77.327-3.4C633.34,16.4,660.888,53.6,702.152,71.667c39.678,17.369,83.468,16.767,125.78,13.5,72.031-5.552,139.131-11.3,211.447-2.243" transform="translate(46.018 338.039)" fill="none" stroke="#da3338" stroke-linecap="round" stroke-linejoin="round" stroke-width="0.25"/>
        <path id="Path_1177" data-name="Path 1177" d="M0,103.141c60.692,16.237,112.24,16.6,170.618-8.026C204.547,80.8,235.837,59.9,271.654,50.091c50.655-13.87,101.634.493,153.02-7.041,36.042-5.286,67.42-19.329,100.792-32.914,86.47-35.2,120.2,29.837,194.046,64.7,113.845,53.754,256.784,11.371,377.436,13" transform="translate(13.638 356.362)" fill="none" stroke="#da3338" stroke-linecap="round" stroke-linejoin="round" stroke-width="0.25"/>
        <path id="Path_1178" data-name="Path 1178" d="M0,105.2c58.675,23.441,106.633,26.34,164.106-2.359,40.268-20.107,76.616-51.373,120.138-64.613C333.256,23.315,374.79,44.6,424,44.787c41.459.156,73.777-14.137,111.055-29.88C562.1,3.489,583.7-5.631,613,4.144c47.544,15.862,82.224,62.916,128.668,83.723,132.019,59.145,287.887,16.454,424.389-.761" transform="translate(0.328 382.418)" fill="none" stroke="#da3338" stroke-linecap="round" stroke-linejoin="round" stroke-width="0.25"/>
        <path id="Path_1179" data-name="Path 1179" d="M0,81.558c65.241,24.609,115.549,25.815,177.586-8.468C215.61,52.074,249.927,21.845,292.4,9.814,343.934-4.786,391.03,22.2,442.534,24.02c33.025,1.166,62.146-6.31,93.066-16.535C618.709-20,662.311,35.286,740,59.353c144.912,44.889,305.228,6.794,452.679-1.965" transform="translate(7.482 432.417)" fill="none" stroke="#da3338" stroke-linecap="round" stroke-linejoin="round" stroke-width="0.25"/>
        <path id="Path_1180" data-name="Path 1180" d="M0,81.568c67.1,23.73,119.127,26.021,181.578-11.3,36.659-21.9,69.247-53.516,110.987-65.838,51.93-15.331,98.366,13.4,149.024,21.2,29.629,4.562,56.546,2.968,85.757-2.115,76.323-13.28,128.493,23.317,202.94,37.956,154,30.283,313.764.739,469.246,7.727" transform="translate(24.709 451.699)" fill="none" stroke="#da3338" stroke-linecap="round" stroke-linejoin="round" stroke-width="0.25"/>
        <path id="Path_1181" data-name="Path 1181" d="M0,87.728c68.742,22.858,122.63,26.231,185.158-14.285C220.33,50.651,251.031,17.585,291.965,4.9c73.346-22.725,148.441,40.962,224.3,40.5C585.082,44.981,646,63.333,714.38,71.379c158.93,18.7,320.372-2.612,478.259,26.9" transform="translate(45.564 461.246)" fill="none" stroke="#da3338" stroke-linecap="round" stroke-linejoin="round" stroke-width="0.25"/>
        <path id="Path_1182" data-name="Path 1182" d="M0,92.106C65.862,112.762,122.339,120,182.463,80.705c35.371-23.115,65.016-60.231,105.7-74.6C365.575-21.238,434.535,51.32,508.2,65.111,571.847,77.024,644.694,75.22,709,78.736c155.317,8.489,320.915-4.253,468.886,51.155" transform="translate(63.601 472.468)" fill="none" stroke="#da3338" stroke-linecap="round" stroke-linejoin="round" stroke-width="0.25"/>
        <path id="Path_1183" data-name="Path 1183" d="M0,93.693c67.747,20.433,127.528,29.385,188.987-12C223.688,58.324,252.361,20.24,292.8,6.107c81.823-28.59,145.592,51.131,216.4,75.643,17.911,6.2,33.512,4.922,52.374,3.25,48.588-4.3,95.669-6.507,144.6-6.342,148.293.5,325.547-4.943,455,77.561" transform="translate(72.374 489.859)" fill="none" stroke="#da3338" stroke-linecap="round" stroke-linejoin="round" stroke-width="0.25"/>
        <path id="Path_1184" data-name="Path 1184" d="M0,90.172C74.949,112.456,138.735,121.608,205.713,74.6c33.514-23.522,61.714-58.832,102.442-70.254C394.537-19.885,454.53,63.8,525.138,93.1c18.024,7.48,32.914,4.345,51.645.073C623.2,82.587,666.5,70.155,714.563,67.057c138.814-8.944,331.821-7.292,433.8,101.081" transform="translate(65.436 519.214)" fill="none" stroke="#da3338" stroke-linecap="round" stroke-linejoin="round" stroke-width="0.25"/>
        <path id="Path_1185" data-name="Path 1185" d="M124.559,679.217c47.827-56.213,58.088-143.132-3.788-195.049-40.3-33.812-142.66-49.08-116.571-121,9.46-26.076,31.36-46.033,38.5-73.453,6.212-23.88,1.378-48.744-1.155-72.766C32.392,130.168,74.568,68.4,124.8,0" transform="translate(1041.026 13.507)" fill="none" stroke="#da3338" stroke-linecap="round" stroke-linejoin="round" stroke-width="0.25"/>
        <path id="Path_1186" data-name="Path 1186" d="M138.853,636.8c38.523-54.576,32.25-125.268-23.464-166.823C70.051,436.165-23.516,417.749,5.464,341.546c8.491-22.329,25.106-40.906,32.08-63.978,8.342-27.6,4.47-53.651,2.021-81.7C32.426,114.1,78,61.851,128.112,0" transform="translate(1001.418 30.28)" fill="none" stroke="#da3338" stroke-linecap="round" stroke-linejoin="round" stroke-width="0.25"/>
        <path id="Path_1187" data-name="Path 1187" d="M141.817,596.9c37.2-51.412,3.763-113.832-41.8-144.546-49.378-33.285-122-54.064-93.648-129.483,10.585-28.161,32-49.363,36.976-80.321,3.518-21.9-1.17-44.163-3.139-65.941C33.4,101.263,86.028,53.816,133.429,0" transform="translate(965.528 48.89)" fill="none" stroke="#da3338" stroke-linecap="round" stroke-linejoin="round" stroke-width="0.25"/>
        <path id="Path_1188" data-name="Path 1188" d="M138.644,561.024c21.371-43.419-3.79-92.431-40.313-117.816C63.66,419.11,22,413.669,4.261,367.668c-8.652-22.436-2.946-39.055,6.582-60.2,11.8-26.186,31.613-45,37.688-74.223,5.678-27.317-2.046-53.338-3.27-80.672C42.381,88.255,102.31,43.145,142.693,0" transform="translate(929.741 67.64)" fill="none" stroke="#da3338" stroke-linecap="round" stroke-linejoin="round" stroke-width="0.25"/>
        <path id="Path_1189" data-name="Path 1189" d="M127.648,530.733c25.8-115.334-184.53-123.295-112.564-235,15.864-24.626,37.015-43.792,43.049-73.957,5.19-25.942-3.469-50.5-5.376-76.027C48.047,82.673,111.044,41.176,150.973,0" transform="translate(897.321 84.831)" fill="none" stroke="#da3338" stroke-linecap="round" stroke-linejoin="round" stroke-width="0.25"/>
        <path id="Path_1190" data-name="Path 1190" d="M113.412,507.555c-3.345-44.469-20.178-69.262-54.124-95.615C13.376,376.3-25.2,340.73,20.514,288.071c16.237-18.706,37.152-34.643,45.845-58.89,11.313-31.553-2.567-60.357-4-91.748C59.633,77.936,121.593,39.016,159.6,0" transform="translate(865.26 98.769)" fill="none" stroke="#da3338" stroke-linecap="round" stroke-linejoin="round" stroke-width="0.25"/>
        <path id="Path_1191" data-name="Path 1191" d="M98.252,493.03C83.665,455.2,76.058,430.869,45.91,403,2.716,363.059-22.821,328.084,28.45,284.834c18.453-15.567,41.506-28.945,51.489-52.322,13.625-31.9-2.7-62.419-5.314-94.276C69.643,77.617,128.892,41.007,167.632,0" transform="translate(832.827 107.754)" fill="none" stroke="#da3338" stroke-linecap="round" stroke-linejoin="round" stroke-width="0.25"/>
        <path id="Path_1192" data-name="Path 1192" d="M84.75,488.7c-19.209-28.8-23.21-61.757-47.413-87.865C-5.888,354.2-19.322,322.616,39.261,286.413c25.429-15.717,55.408-26.749,62.466-59.85,6.2-29.053-11.294-59.845-14.157-87.977C81.633,80.207,138.632,40.523,174.413,0" transform="translate(799.01 110.089)" fill="none" stroke="#da3338" stroke-linecap="round" stroke-linejoin="round" stroke-width="0.25"/>
        <path id="Path_1193" data-name="Path 1193" d="M70.638,496.09c-24.05-27.279-30.1-67.175-48.1-98.456-30.84-53.584-36.676-81.3,25.4-104.477,20.7-7.729,50.28-14.975,62.854-35.806,18.461-30.585-3.008-70.527-10.411-101.229C83.9,87.794,132.994,52.3,174.417,0" transform="translate(767.661 104.079)" fill="none" stroke="#da3338" stroke-linecap="round" stroke-linejoin="round" stroke-width="0.25"/>
        <path id="Path_1194" data-name="Path 1194" d="M69.114,516.75c-30.955-30.883-33.664-74.487-48.1-113.483C13.2,382.189-9.508,357.006,4.428,333.479c11.86-20.023,41.9-23.771,61.823-28.011,20.473-4.356,53.908-7.142,67.758-26.567,21.193-29.725-6-76.376-14.885-106C96.54,97.653,134.016,64,177.6,0" transform="translate(727.158 88.024)" fill="none" stroke="#da3338" stroke-linecap="round" stroke-linejoin="round" stroke-width="0.25"/>
        <path id="Path_1195" data-name="Path 1195" d="M64.657,552.213C29.521,511.824,27.22,476.169,16,426.5c-6.05-26.8-28.385-62.008-6.781-86.837,14.007-16.094,49.132-14.572,67.18-15.944,23.9-1.815,58.662.714,73.449-22,18.982-29.151-12.809-79.7-23.36-108.1-7.769-20.917-18.47-44.459-18.256-67.439.4-43.177,37.377-91.1,56.944-126.185" transform="translate(694.6 60.227)" fill="none" stroke="#da3338" stroke-linecap="round" stroke-linejoin="round" stroke-width="0.25"/>
        <path id="Path_1196" data-name="Path 1196" d="M68.861,603.94C21.726,550.469,20.985,504.971,10.709,438c-2.942-19.168-18.421-53.492-5.865-72.264,16.829-25.155,57.981-18.545,83.087-17.546,21.4.851,65.376,9.4,79.055-14.437,11.928-20.784-21.345-81.5-27.609-96.524-13.394-32.123-34.086-67.045-36.13-102.69C100.6,88.369,128.256,40.505,145.708,0" transform="translate(659.901 19.1)" fill="none" stroke="#da3338" stroke-linecap="round" stroke-linejoin="round" stroke-width="0.25"/>
        <path id="Path_1197" data-name="Path 1197" d="M56.118,636.228C18.816,569.779,16.446,510.463,8.85,436.7,6.93,418.04-7.58,380.511,5.231,362.746,21.852,339.7,61.772,346.468,85.46,347.458c20.54.857,63.644,9.021,77.19-13.486,12.143-20.173-18.035-78.045-24.035-92.918-13.2-32.721-34.562-67.859-37.585-103.794-4.052-48.2,24-95.472,43.276-137.26" transform="translate(633.483 4.508)" fill="none" stroke="#da3338" stroke-linecap="round" stroke-linejoin="round" stroke-width="0.25"/>
        <path id="Path_1198" data-name="Path 1198" d="M49.7,652.965C20.6,579.042,14.856,509.724,7.868,431.589c-1.665-18.618-15.23-57.456-2.4-75.133,16.1-22.181,53.931-16.874,77.1-16.944,20.767-.064,61.8,5.935,75.058-16.452,12.37-20.887-14.71-72.856-21.521-88.973-13.4-31.692-36.76-65.121-41.725-99.794C87.489,86.155,115.268,41.215,135.476,0" transform="translate(610.507 0.703)" fill="none" stroke="#da3338" stroke-linecap="round" stroke-linejoin="round" stroke-width="0.25"/>
        <path id="Path_1199" data-name="Path 1199" d="M48.409,656.631C25.7,579.2,15.38,503.6,7.544,423.607,5.669,404.466-7.123,366.239,5.5,347.878c15.5-22.539,50.381-19.074,73.7-21.6,21.763-2.355,59.689.964,72.652-22.412,12.389-22.342-11.3-66.77-19.816-84.8C118,189.33,91.8,159.444,84.211,127.076,73.327,80.636,100.41,39.419,120.944,0" transform="translate(590.054 5.462)" fill="none" stroke="#da3338" stroke-linecap="round" stroke-linejoin="round" stroke-width="0.25"/>
        <path id="Path_1200" data-name="Path 1200" d="M47,649.7C29.184,571.4,13.456,493.391,3.617,413.668c-9.031-73.16-6.057-88.039,67.645-103.982,22.659-4.9,57.726-6.034,69.961-30.452,12.029-24.009-7.7-60.679-18.661-80.516-15.2-27.508-44.493-52.157-55.166-81.671C51.669,73.563,77.781,37.03,98.366,0" transform="translate(575.282 16.567)" fill="none" stroke="#da3338" stroke-linecap="round" stroke-linejoin="round" stroke-width="0.25"/>
        <path id="Path_1201" data-name="Path 1201" d="M56.188,634.657c-13.73-75.678-34.332-149.924-47.263-225.7C4.509,383.08-8.2,346.318,7.976,322.371c13.158-19.481,42.134-24,62.614-30.73,73.779-24.225,89.828-67.8,36.509-132.769-14.407-17.553-37.8-31.429-48.806-51.082C35.468,67.019,59.61,36.619,81.38,0" transform="translate(553.363 31.795)" fill="none" stroke="#da3338" stroke-linecap="round" stroke-linejoin="round" stroke-width="0.25"/>
        <path id="Path_1202" data-name="Path 1202" d="M60.344,613.976C49.406,538.881,23.833,470.74,6.88,397.432-9.1,328.33.124,304.379,62.7,274.114c62.984-30.465,93.518-77.713,33.25-135.441-16.281-15.6-41.639-25.073-55.32-42.528C12.376,60.1,34.771,34.883,57.267,0" transform="translate(537.832 48.928)" fill="none" stroke="#da3338" stroke-linecap="round" stroke-linejoin="round" stroke-width="0.25"/>
        <path id="Path_1203" data-name="Path 1203" d="M68.99,590.137c-8.472-73.385-35.8-129-58.442-197.3-23.4-70.6-8.014-95.253,47.673-133.768,48.315-33.417,97.518-82.018,35.069-134.113-19.018-15.864-45.08-21.7-63.614-37.308C-6.7,57.01,14.053,34.879,38.465,0" transform="translate(517.057 65.742)" fill="none" stroke="#da3338" stroke-linecap="round" stroke-linejoin="round" stroke-width="0.25"/>
        <path id="Path_1204" data-name="Path 1204" d="M82.363,565.616c-3.885-46.541-10.064-84.21-31.883-125.54C40.253,420.7,26.788,403.211,17.92,383.044-10.664,318.05,11.367,289.5,58.572,248.335c39.745-34.652,96.282-91.945,32.517-136.4-20.829-14.523-47.39-17.622-68-31.508C-16.747,53.582,1.667,34.465,28.123,0" transform="translate(488.702 80.021)" fill="none" stroke="#da3338" stroke-linecap="round" stroke-linejoin="round" stroke-width="0.25"/>
        <path id="Path_1205" data-name="Path 1205" d="M100.708,542.9c-2.126-45.873-5.781-80.529-31.9-118.743-11.444-16.752-27.24-30.38-37.2-48.288C-.866,317.482,25.549,285.389,65.123,243.9c33.977-35.624,91.1-96.944,30.658-137.1C74.248,92.491,47.724,89.924,25.3,77.908-18.622,54.377,2.543,32.117,29.4,0" transform="translate(450.419 89.539)" fill="none" stroke="#da3338" stroke-linecap="round" stroke-linejoin="round" stroke-width="0.25"/>
        <path id="Path_1206" data-name="Path 1206" d="M111.162,524.446c-.011-44.786-.581-77.715-30.555-112.341-12.407-14.33-29.894-24.056-40.929-39.8-35.3-50.387-6.094-85.369,26.466-124.627,29.356-35.393,84.039-97.43,29.822-135.551C74.84,97.267,47.6,94.317,25.493,81.634-19.788,55.656,3.39,32.412,32.354,0" transform="translate(412.967 92.08)" fill="none" stroke="#da3338" stroke-linecap="round" stroke-linejoin="round" stroke-width="0.25"/>
        <path id="Path_1207" data-name="Path 1207" d="M111.917,512.756c2.516-41.347,6.045-75.06-25.288-105.57C71.819,392.763,51.886,386.2,38.7,369.618,6.808,329.5,35,294.761,61.026,261.5c29.494-37.688,75.847-95.232,25.757-134.259-19.674-15.329-46.044-20.722-65.757-35.95C-21.416,58.506,8.788,31.3,38.082,0" transform="translate(376.054 85.418)" fill="none" stroke="#da3338" stroke-linecap="round" stroke-linejoin="round" stroke-width="0.25"/>
        <path id="Path_1208" data-name="Path 1208" d="M100.466,510.3c5.063-37.463,13.527-73.734-17.692-101.486-16.029-14.249-39.627-16.745-53.43-34.379C3.585,341.528,27.883,314.75,48.228,287.6,71.866,256.045,106.483,213.889,87,172.75,73.546,144.35,34.682,132.35,15.143,109-21.307,65.444,15.545,33.139,47,0" transform="translate(340.081 67.338)" fill="none" stroke="#da3338" stroke-linecap="round" stroke-linejoin="round" stroke-width="0.25"/>
        <path id="Path_1209" data-name="Path 1209" d="M94.016,526.062c6.747-35.616,17.206-70.308-13.053-97.227C65.3,414.906,42.09,413.089,28.49,395.855c-25.429-32.226-.921-51.549,20.454-75.5,28.748-32.215,48.3-71.347,29.13-114.308-14.44-32.352-47.066-51.894-65.536-81.4C-18.685,74.769,14.4,38.766,46.5,0" transform="translate(309.489 41.06)" fill="none" stroke="#da3338" stroke-linecap="round" stroke-linejoin="round" stroke-width="0.25"/>
        <path id="Path_1210" data-name="Path 1210" d="M91.214,543.332c8.14-34.722,19.751-67.61-10.195-94.128-15.757-13.953-39.346-15.365-53.1-32.652-26.629-33.479,1.9-49.978,24.452-72.738,34.077-34.388,40.473-74.373,21.24-119.446-14.778-34.634-45.29-58.943-62.511-91.983C-16.334,79.744,11.911,42.659,43.462,0" transform="translate(281.125 23.293)" fill="none" stroke="#da3338" stroke-linecap="round" stroke-linejoin="round" stroke-width="0.25"/>
        <path id="Path_1211" data-name="Path 1211" d="M90.91,561.131c9.754-36.361,21.38-66.5-10.506-93.267-15.1-12.672-36.143-14.684-50.042-29.648-32.856-35.378,2.308-55.313,27.366-79.14,45.056-42.845,34.463-96.847,4.622-147.948-15.02-25.725-36.325-47.546-50.006-74.1C-15.282,83.421,7.889,46.179,38.4,0" transform="translate(254.522 12.875)" fill="none" stroke="#da3338" stroke-linecap="round" stroke-linejoin="round" stroke-width="0.25"/>
        <path id="Path_1212" data-name="Path 1212" d="M92.52,578.534c11.035-36.781,22.507-64.971-9.85-91.945-15.77-13.148-37.748-15.342-52.354-30.782-36.346-38.421,8.352-62.693,34.643-88.131,49.972-48.356,32.3-105.727-1.6-160.7C47.707,181.592,26.678,159.522,12.837,133-13.763,82.035,5.043,45.963,32.326,0" transform="translate(228.694 8.614)" fill="none" stroke="#da3338" stroke-linecap="round" stroke-linejoin="round" stroke-width="0.25"/>
        <path id="Path_1213" data-name="Path 1213" d="M94.817,594.615c12.333-37.446,23.362-63.824-9.565-91.216C68.713,489.64,45.7,487.071,30.3,471.02c-40.143-41.84,15.362-72.575,42.97-100.267,54.971-55.14,33.137-115.244-7.279-174.528-16.509-24.217-37.559-45.543-51.956-71.182C-12.2,78.337,2.214,44.45,25.6,0" transform="translate(203.306 9.316)" fill="none" stroke="#da3338" stroke-linecap="round" stroke-linejoin="round" stroke-width="0.25"/>
        <path id="Path_1214" data-name="Path 1214" d="M93.233,608.446c13.711-38.1,24.266-62.9-9.154-90.869C66.8,503.12,42.768,500.037,26.623,483.3c-43.816-45.412,22.89-83.593,51.924-113.725,59.914-62.181,36.019-125.3-12.629-188.353C16.19,116.772-22.687,83.623,15.245,0" transform="translate(181.353 13.795)" fill="none" stroke="#da3338" stroke-linecap="round" stroke-linejoin="round" stroke-width="0.25"/>
        <path id="Path_1215" data-name="Path 1215" d="M94.649,619.1c15.226-38.5,25.554-62.02-8.134-90.7-17.844-15.19-42.762-18.871-59.481-36.312-46.94-48.967,30.557-94.3,61.088-126.684,64.7-68.62,39.68-135.448-17.87-201.087C21.464,108.671-19.37,78.118,9.741,0" transform="translate(154.393 20.859)" fill="none" stroke="#da3338" stroke-linecap="round" stroke-linejoin="round" stroke-width="0.25"/>
        <path id="Path_1216" data-name="Path 1216" d="M93.656,625.65c16.936-38.44,27.576-60.977-6.012-90.492C69.54,519.25,43.987,514.945,27,496.833-22.11,444.464,65.011,393.605,97.036,359.51c69.417-73.9,42.509-144.679-23.216-211.637C26.907,100.078-15.087,72.339,5.266,0" transform="translate(126.265 29.318)" fill="none" stroke="#da3338" stroke-linecap="round" stroke-linejoin="round" stroke-width="0.25"/>
        <path id="Path_1217" data-name="Path 1217" d="M88.994,627.169c18.851-37.686,30.679-59.554-2.306-90.049-17.9-16.554-43.745-21.461-60.554-40.145-49.912-55.483,44.926-108.9,78.354-143.817,74.358-77.67,42.59-151.5-28.89-218.918C31.15,92.318-9.979,66.674,2.153,0" transform="translate(96.663 37.981)" fill="none" stroke="#da3338" stroke-linecap="round" stroke-linejoin="round" stroke-width="0.25"/>
        <path id="Path_1218" data-name="Path 1218" d="M79.154,622.731c20.9-36,35.164-57.527,3.478-89.157C65.529,516.5,39.855,511.05,23.8,491.957-25.115,433.8,74.766,382.1,109.415,347.615c79.905-79.534,37.816-154.267-35.1-221.843C32.452,86.982-4.721,61.667.49,0" transform="translate(65.529 45.656)" fill="none" stroke="#da3338" stroke-linecap="round" stroke-linejoin="round" stroke-width="0.25"/>
        <path id="Path_1219" data-name="Path 1219" d="M62.791,611.409c22.822-33.152,41.251-54.681,11.828-87.61-15.541-17.394-40.5-23.323-55.1-42.573-45.633-60.182,55.806-104.687,91.409-137.083C263.769,205.077-13.527,135.388.519,0" transform="translate(32.642 51.157)" fill="none" stroke="#da3338" stroke-linecap="round" stroke-linejoin="round" stroke-width="0.25"/>
      </g>
    </g>
  </g>
</svg>
