<svg xmlns="http://www.w3.org/2000/svg" xmlns:xlink="http://www.w3.org/1999/xlink" width="156" height="232" viewBox="0 0 156 232">
  <defs>
    <clipPath id="clip-path">
      <rect id="Rectangle_1486" data-name="Rectangle 1486" width="156" height="232" transform="translate(750 6504)" fill="#fff" opacity="0.42"/>
    </clipPath>
    <clipPath id="clip-path-2">
      <rect id="Rectangle_1112" data-name="Rectangle 1112" width="562.311" height="327.324" fill="none" stroke="#da3338" stroke-width="1"/>
    </clipPath>
  </defs>
  <g id="Mask_Group_24" data-name="Mask Group 24" transform="translate(-750 -6504)" clip-path="url(#clip-path)">
    <g id="bg-vector" transform="translate(706.047 6838.997) rotate(-135)">
      <g id="Group_874" data-name="Group 874" clip-path="url(#clip-path-2)">
        <path id="Path_823" data-name="Path 823" d="M16.329,292.092c37.049,11.151,68.411,15.733,101.745-6.125,15.16-9.941,27.9-24.631,46.209-28.866,24.293-5.618,51.211,10.12,71.5,21.176,11.173,6.087,22.728,17.576,34.855,21.663,9.125,3.075,16.638.294,25.44-3.087,24.018-9.225,44.179-20.766,70.2-24.059,54.688-6.922,140.589-1.594,168.5,54.286,25.915-26.334,40.38-72.5,11.012-102.891-14.675-15.184-65.622-19.681-53.5-48.859,4.151-9.992,14.24-16.833,18.858-26.709,5.309-11.351,3.245-22.572,1.715-34.617C507.237,69.76,523.043,36.97,547.364,0,516.657,9.013,497,25.125,470.335,40.772c-20.374,11.954-37.4,10.122-58.447,0C386.966,28.8,366.533.278,337.378.419c-23.574.114-47.008,12.547-68.127,21.6s-48.558,23.645-72.663,19.05c-22.154-4.222-35.231-26.345-57-33.407C94.09-7.1,45.537,21.385,0,24,.619,51.084,10.193,67.135,27.463,87.2c24.507,28.47,62.407,61.411,20.557,92.636-17.412,12.992-62.041,27.274-42.348,56.092,5,7.316,14.974,10.077,20.33,16.819C38.6,268.6,27.9,278.116,16.329,292.092Z" transform="translate(0.121 0.121)" fill="none" stroke="#da3338" stroke-linecap="round" stroke-linejoin="round" stroke-width="0.25"/>
        <path id="Path_824" data-name="Path 824" d="M0,11.569C42.073,8.027,87.624-9.985,128.639,7.559c20.518,8.776,32.539,23.748,56.03,24.839,24.766,1.151,49.283-8.5,72.353-16.2C277.706,9.289,299.837.477,321.994.881c30.159.55,48.147,25.608,74.176,37.358,20.762,9.372,36.89,7.2,56.371-3.526C478.441,20.453,497.812,9.1,528.281,4.6" transform="translate(0.461 25.045)" fill="none" stroke="#da3338" stroke-linecap="round" stroke-linejoin="round" stroke-width="0.25"/>
        <path id="Path_825" data-name="Path 825" d="M0,5.768C40.826,1.085,81.4-6.005,120.812,9.421c21.131,8.269,35.84,18.869,59.4,18.285,24.9-.618,49.061-8.214,72.923-14.6,20.3-5.436,41.535-11.393,62.762-9.665,26.7,2.175,42.316,21.678,65.728,32.341,19.893,9.06,36.246,6.454,55.257-2.756,27.491-13.319,47.345-20.209,78.7-20.078" transform="translate(1.932 41.193)" fill="none" stroke="#da3338" stroke-linecap="round" stroke-linejoin="round" stroke-width="0.25"/>
        <path id="Path_826" data-name="Path 826" d="M0,3.4C43.664-3.041,80.235-.716,121.819,13.672,144.213,21.421,160.611,26.379,184.5,23.8c23.677-2.551,46.751-8.572,70.046-13.272,18.858-3.8,38.318-7.142,57.568-4.616,24.338,3.194,38.986,20.269,61.048,28.948,19.2,7.555,34.313,3.448,52.553-4.106,28.538-11.82,50.2-13.889,81.176-9.25" transform="translate(5.208 53.065)" fill="none" stroke="#da3338" stroke-linecap="round" stroke-linejoin="round" stroke-width="0.25"/>
        <path id="Path_827" data-name="Path 827" d="M0,4.68C25.746-.039,50.551-2.542,76.251,3.811c16.683,4.125,32.523,11.214,49.067,15.863,45.17,12.695,87.771-4.718,132.947-10.031,17.275-2.031,34.717-2.693,51.861.683,21.372,4.21,35.946,18.8,56.115,25.37,18.294,5.961,32.778-.081,49.908-6.249,29.64-10.672,53.5-7.722,83.719.7" transform="translate(10.964 61.765)" fill="none" stroke="#da3338" stroke-linecap="round" stroke-linejoin="round" stroke-width="0.25"/>
        <path id="Path_828" data-name="Path 828" d="M0,5.812c26.935-6.066,51.5-9.2,77.947-.156,17.5,5.986,33.369,15.1,51.766,18.565C173.55,32.48,216.808,7.7,261.229,7.669A165.382,165.382,0,0,1,307.15,14.13c18.92,5.432,35.423,19.175,54.6,22.382,16.961,2.837,30.246-5.9,45.731-10.95,29.818-9.727,55.963-1.939,84.664,9.163" transform="translate(19.869 72.389)" fill="none" stroke="#da3338" stroke-linecap="round" stroke-linejoin="round" stroke-width="0.25"/>
        <path id="Path_829" data-name="Path 829" d="M0,7.58C26.709.165,50.782-4.627,76.881,6.935c15.75,6.977,29.39,17.164,46.925,19.548,27.057,3.68,51.143-9.83,76.631-16.287,19.636-4.975,40.012-7.327,60.121-4.016,16.057,2.643,30.935,9.162,45.836,15.393,14.753,6.17,32.514,17.753,49.051,16.62,13.679-.938,25.069-10.477,37.325-15.573,30.96-12.874,59.866-.439,88.583,13.063" transform="translate(32.601 85.46)" fill="none" stroke="#da3338" stroke-linecap="round" stroke-linejoin="round" stroke-width="0.25"/>
        <path id="Path_830" data-name="Path 830" d="M0,9.859C24.621,1.287,48.229-6.366,71.954,8.1c13.031,7.945,22.783,18.8,39.013,19.693,27.3,1.5,53.145-18.139,79.3-24.165,21.017-4.841,42.418-5.057,62.793,2.519,26.222,9.748,61.915,48.561,91.471,36.367,12.391-5.112,21.026-17.533,32.709-24.07,29.658-16.594,60.772-.146,87.87,14.072" transform="translate(49.855 102.443)" fill="none" stroke="#da3338" stroke-linecap="round" stroke-linejoin="round" stroke-width="0.25"/>
        <path id="Path_831" data-name="Path 831" d="M0,18.277C21.113,11.7,41.356,5.347,62.77,13.571c11.5,4.416,19.866,10.672,32.828,9.944,24.944-1.4,49.48-16.225,74.271-20.6,21.5-3.8,42.941-4.515,64.052,1.723,27.521,8.132,65,45.453,94.019,37.368,12.438-3.465,21.8-15.13,33.018-21.039C389.725,5.8,416.98,15.818,445.1,28.185" transform="translate(66.497 119.919)" fill="none" stroke="#da3338" stroke-linecap="round" stroke-linejoin="round" stroke-width="0.25"/>
        <path id="Path_832" data-name="Path 832" d="M0,24.878c19.3-4.447,38.275-8.671,58.125-6.108,11.695,1.51,21.568,3.929,33.49,2.115C136.709,14.024,177.532-6.742,224.546,2.2c15.774,3,30.428,9.645,44.768,16.633,13.452,6.556,29.9,19.393,45.363,19.748,14.922.341,28.55-11.254,41.7-16.666,28.011-11.53,52.777-5.479,80.573,4.639" transform="translate(66.951 133.195)" fill="none" stroke="#da3338" stroke-linecap="round" stroke-linejoin="round" stroke-width="0.25"/>
        <path id="Path_833" data-name="Path 833" d="M0,30.638c30.95-3.618,62.919-3.557,93.458-9.965C135.518,11.848,179.026-2.161,222.534.282c15.284.858,29.428,4.922,43.452,10.95,15.233,6.547,30.024,19.574,46.3,22.379,15.147,2.611,29.748-4.436,43.987-8.552,29.42-8.506,53.478-6.13,83.082,2.492" transform="translate(56.183 142.825)" fill="none" stroke="#da3338" stroke-linecap="round" stroke-linejoin="round" stroke-width="0.25"/>
        <path id="Path_834" data-name="Path 834" d="M0,37.056C76.389,37.885,149.844,8.728,225.677.6c13.948-1.495,26.83-.3,40.062,4.545C282.99,11.461,296,25.37,313.056,31.143c16.852,5.7,34.113,1.947,51.164-.854,30.484-5.008,56.111-5.209,86.75,1.354" transform="translate(39.154 148.839)" fill="none" stroke="#da3338" stroke-linecap="round" stroke-linejoin="round" stroke-width="0.25"/>
        <path id="Path_835" data-name="Path 835" d="M0,43.883c24.413,3.434,46.783,4.175,70.431-3.593C86.367,35.055,101.353,27.3,117.79,23.547c20.391-4.654,41.668-2.918,62.288-6.359,17.728-2.957,34.238-9.132,51.487-13.8,11.924-3.23,22.868-4.907,35-1.54,20.112,5.58,32.582,22.418,51.26,30.595,17.96,7.862,37.782,7.589,56.934,6.113,32.6-2.513,62.977-5.117,95.711-1.015" transform="translate(20.83 153.012)" fill="none" stroke="#da3338" stroke-linecap="round" stroke-linejoin="round" stroke-width="0.25"/>
        <path id="Path_836" data-name="Path 836" d="M0,46.687c27.472,7.35,50.805,7.515,77.23-3.633,15.358-6.48,29.521-15.942,45.734-20.38,22.929-6.278,46,.223,69.264-3.187,16.314-2.393,30.517-8.749,45.623-14.9,39.141-15.933,54.409,13.506,87.834,29.289,51.532,24.331,116.233,5.147,170.846,5.886" transform="translate(6.173 161.306)" fill="none" stroke="#da3338" stroke-linecap="round" stroke-linejoin="round" stroke-width="0.25"/>
        <path id="Path_837" data-name="Path 837" d="M0,47.617c26.559,10.611,48.267,11.923,74.282-1.068,18.227-9.1,34.68-23.254,54.38-29.247,22.185-6.748,40.985,2.886,63.262,2.971,18.766.071,33.395-6.4,50.269-13.525,12.24-5.169,22.019-9.3,35.281-4.872,21.521,7.18,37.218,28.479,58.241,37.9,59.758,26.772,130.311,7.448,192.1-.344" transform="translate(0.148 173.101)" fill="none" stroke="#da3338" stroke-linecap="round" stroke-linejoin="round" stroke-width="0.25"/>
        <path id="Path_838" data-name="Path 838" d="M0,36.917C29.531,48.056,52.3,48.6,80.384,33.084c17.212-9.513,32.745-23.2,51.972-28.642,23.327-6.607,44.645,5.607,67.958,6.43,14.949.528,28.13-2.856,42.126-7.485,37.618-12.442,57.354,12.584,92.519,23.478,65.594,20.319,138.161,3.075,204.9-.889" transform="translate(3.387 195.733)" fill="none" stroke="#da3338" stroke-linecap="round" stroke-linejoin="round" stroke-width="0.25"/>
        <path id="Path_839" data-name="Path 839" d="M0,36.922C30.372,47.663,53.923,48.7,82.191,31.808c16.594-9.914,31.345-24.224,50.238-29.8,23.506-6.94,44.525,6.065,67.455,9.6,13.412,2.065,25.6,1.343,38.818-.957,34.547-6.011,58.162,10.554,91.86,17.18,69.706,13.707,142.025.335,212.4,3.5" transform="translate(11.185 204.461)" fill="none" stroke="#da3338" stroke-linecap="round" stroke-linejoin="round" stroke-width="0.25"/>
        <path id="Path_840" data-name="Path 840" d="M0,39.71c31.116,10.347,55.508,11.873,83.811-6.466C99.732,22.927,113.628,7.96,132.157,2.219c33.2-10.287,67.191,18.541,101.527,18.332,31.152-.19,58.725,8.117,89.678,11.759,71.939,8.465,145.016-1.182,216.483,12.176" transform="translate(20.625 208.782)" fill="none" stroke="#da3338" stroke-linecap="round" stroke-linejoin="round" stroke-width="0.25"/>
        <path id="Path_841" data-name="Path 841" d="M0,41.692c29.812,9.35,55.376,12.625,82.591-5.161C98.6,26.068,112.02,9.268,130.435,2.764c35.042-12.377,66.257,20.466,99.6,26.709,28.808,5.393,61.782,4.576,90.892,6.167,70.3,3.843,145.261-1.925,212.24,23.155" transform="translate(28.789 213.862)" fill="none" stroke="#da3338" stroke-linecap="round" stroke-linejoin="round" stroke-width="0.25"/>
        <path id="Path_842" data-name="Path 842" d="M0,42.41c30.666,9.249,57.725,13.3,85.545-5.432C101.252,26.4,114.231,9.162,132.537,2.764c37.035-12.941,65.9,23.144,97.95,34.24,8.107,2.807,15.169,2.228,23.707,1.471,21.993-1.948,43.3-2.946,65.453-2.871,67.125.225,147.358-2.238,205.953,35.108" transform="translate(32.76 221.733)" fill="none" stroke="#da3338" stroke-linecap="round" stroke-linejoin="round" stroke-width="0.25"/>
        <path id="Path_843" data-name="Path 843" d="M0,40.816C33.926,50.9,62.8,55.045,93.115,33.767c15.17-10.647,27.935-26.63,46.37-31.8C178.586-9,205.742,28.879,237.7,42.142c8.159,3.386,14.9,1.967,23.377.033,21.011-4.792,40.608-10.419,62.365-11.822,62.834-4.048,150.2-3.3,196.359,45.754" transform="translate(29.619 235.021)" fill="none" stroke="#da3338" stroke-linecap="round" stroke-linejoin="round" stroke-width="0.25"/>
        <path id="Path_844" data-name="Path 844" d="M56.381,307.446C78.03,282,82.675,242.658,54.667,219.157,36.426,203.853-9.908,196.941,1.9,164.389c4.282-11.8,14.2-20.837,17.425-33.249,2.812-10.809.624-22.064-.523-32.937C14.662,58.92,33.753,30.962,56.49,0" transform="translate(471.218 6.114)" fill="none" stroke="#da3338" stroke-linecap="round" stroke-linejoin="round" stroke-width="0.25"/>
        <path id="Path_845" data-name="Path 845" d="M62.851,288.248c17.438-24.7,14.6-56.7-10.621-75.512C31.709,197.429-10.644,189.093,2.473,154.6c3.844-10.107,11.364-18.516,14.521-28.96,3.776-12.491,2.023-24.285.915-36.984C14.677,51.646,35.3,28,57.989,0" transform="translate(453.29 13.706)" fill="none" stroke="#da3338" stroke-linecap="round" stroke-linejoin="round" stroke-width="0.25"/>
        <path id="Path_846" data-name="Path 846" d="M64.193,270.183c16.839-23.271,1.7-51.526-18.921-65.428-22.351-15.066-55.221-24.472-42.39-58.61C7.673,133.4,17.366,123.8,19.619,109.788c1.593-9.911-.53-19.99-1.421-29.848C15.118,45.837,38.94,24.36,60.4,0" transform="translate(437.044 22.13)" fill="none" stroke="#da3338" stroke-linecap="round" stroke-linejoin="round" stroke-width="0.25"/>
        <path id="Path_847" data-name="Path 847" d="M62.757,253.946c9.674-19.654-1.716-41.839-18.247-53.329-15.694-10.908-34.55-13.371-42.581-34.193-3.916-10.156-1.334-17.678,2.979-27.252,5.339-11.853,14.31-20.371,17.059-33.6,2.57-12.365-.926-24.143-1.48-36.516C19.184,39.949,46.31,19.53,64.59,0" transform="translate(420.845 30.617)" fill="none" stroke="#da3338" stroke-linecap="round" stroke-linejoin="round" stroke-width="0.25"/>
        <path id="Path_848" data-name="Path 848" d="M57.779,240.235c11.676-52.206-83.527-55.809-50.952-106.373,7.181-11.147,16.755-19.822,19.486-33.476,2.349-11.742-1.57-22.857-2.433-34.413C21.748,37.422,50.264,18.638,68.338,0" transform="translate(406.17 38.399)" fill="none" stroke="#da3338" stroke-linecap="round" stroke-linejoin="round" stroke-width="0.25"/>
        <path id="Path_849" data-name="Path 849" d="M51.336,229.744c-1.514-20.129-9.133-31.351-24.5-43.28C6.055,170.33-11.406,154.231,9.286,130.395c7.35-8.467,16.817-15.681,20.752-26.656,5.121-14.282-1.162-27.321-1.812-41.529C26.993,35.278,55.039,17.661,72.241,0" transform="translate(391.658 44.708)" fill="none" stroke="#da3338" stroke-linecap="round" stroke-linejoin="round" stroke-width="0.25"/>
        <path id="Path_850" data-name="Path 850" d="M44.474,223.169c-6.6-17.121-10.046-28.137-23.692-40.753-19.552-18.078-31.111-33.909-7.9-53.486,8.353-7.046,18.788-13.1,23.306-23.684,6.167-14.44-1.22-28.254-2.405-42.674C31.524,35.133,58.343,18.562,75.878,0" transform="translate(376.977 48.774)" fill="none" stroke="#da3338" stroke-linecap="round" stroke-linejoin="round" stroke-width="0.25"/>
        <path id="Path_851" data-name="Path 851" d="M38.362,221.208c-8.695-13.036-10.506-27.954-21.462-39.772-19.565-21.107-25.647-35.4.871-51.792,11.511-7.114,25.08-12.108,28.275-27.091,2.8-13.151-5.112-27.089-6.408-39.822C36.951,36.306,62.752,18.342,78.948,0" transform="translate(361.67 49.832)" fill="none" stroke="#da3338" stroke-linecap="round" stroke-linejoin="round" stroke-width="0.25"/>
        <path id="Path_852" data-name="Path 852" d="M31.974,224.554C21.088,212.206,18.35,194.147,10.2,179.988c-13.96-24.255-16.6-36.8,11.5-47.291,9.371-3.5,22.759-6.779,28.451-16.208,8.356-13.844-1.362-31.924-4.713-45.821C37.977,39.74,60.2,23.673,78.949,0" transform="translate(347.48 47.111)" fill="none" stroke="#da3338" stroke-linecap="round" stroke-linejoin="round" stroke-width="0.25"/>
        <path id="Path_853" data-name="Path 853" d="M31.284,233.906c-14.012-13.979-15.238-33.716-21.775-51.368C5.976,173-4.3,161.6,2,150.949c5.368-9.064,18.967-10.76,27.984-12.679,9.267-1.972,24.4-3.233,30.671-12.026,9.593-13.455-2.714-34.571-6.738-47.982C43.7,44.2,60.662,28.97,80.388,0" transform="translate(329.146 39.844)" fill="none" stroke="#da3338" stroke-linecap="round" stroke-linejoin="round" stroke-width="0.25"/>
        <path id="Path_854" data-name="Path 854" d="M29.267,249.958c-15.9-18.282-16.946-34.421-22.024-56.9C4.5,180.925-5.606,164.987,4.173,153.748c6.34-7.285,22.239-6.6,30.409-7.217,10.816-.821,26.553.323,33.247-9.957,8.592-13.2-5.8-36.076-10.574-48.931-3.517-9.468-8.36-20.124-8.263-30.526C49.173,37.573,65.91,15.882,74.767,0" transform="translate(314.409 27.261)" fill="none" stroke="#da3338" stroke-linecap="round" stroke-linejoin="round" stroke-width="0.25"/>
        <path id="Path_855" data-name="Path 855" d="M31.17,273.372c-21.335-24.2-21.671-44.8-26.323-75.113-1.332-8.677-8.338-24.213-2.655-32.71,7.617-11.386,26.245-8.394,37.609-7.942,9.685.385,29.592,4.253,35.784-6.535,5.4-9.408-9.662-36.89-12.5-43.691C57.026,92.84,47.66,77.033,46.734,60.9,45.537,40,58.055,18.335,65.955,0" transform="translate(298.703 8.646)" fill="none" stroke="#da3338" stroke-linecap="round" stroke-linejoin="round" stroke-width="0.25"/>
        <path id="Path_856" data-name="Path 856" d="M25.4,287.987C8.517,257.909,7.444,231.06,4.006,197.669c-.869-8.444-7.437-25.431-1.638-33.473,7.523-10.434,25.593-7.368,36.315-6.92,9.3.388,28.808,4.083,34.94-6.1,5.5-9.131-8.164-35.327-10.879-42.059C56.769,94.3,47.1,78.4,45.731,62.131,43.9,40.313,56.594,18.916,65.32,0" transform="translate(286.744 2.041)" fill="none" stroke="#da3338" stroke-linecap="round" stroke-linejoin="round" stroke-width="0.25"/>
        <path id="Path_857" data-name="Path 857" d="M22.495,295.563C9.321,262.1,6.722,230.725,3.56,195.358c-.754-8.427-6.894-26.007-1.086-34.009,7.288-10.04,24.412-7.638,34.9-7.67,9.4-.029,27.973,2.687,33.975-7.447,5.6-9.454-6.658-32.978-9.742-40.273C55.544,91.613,44.969,76.482,42.722,60.787,39.6,39,52.176,18.656,61.323,0" transform="translate(276.344 0.318)" fill="none" stroke="#da3338" stroke-linecap="round" stroke-linejoin="round" stroke-width="0.25"/>
        <path id="Path_858" data-name="Path 858" d="M21.912,297.222c-10.279-35.049-14.951-69.268-18.5-105.478-.849-8.664-6.639-25.968-.923-34.279,7.016-10.2,22.8-8.634,33.362-9.777,9.851-1.066,27.018.436,32.886-10.145,5.608-10.113-5.116-30.223-8.969-38.385C53.415,85.7,41.558,72.171,38.122,57.52,33.191,36.5,45.45,17.843,54.745,0" transform="translate(267.086 2.472)" fill="none" stroke="#da3338" stroke-linecap="round" stroke-linejoin="round" stroke-width="0.25"/>
        <path id="Path_859" data-name="Path 859" d="M21.274,294.086C13.21,258.645,6.091,223.333,1.637,187.246-2.451,154.131-1.1,147.4,32.256,140.179c10.257-2.218,26.13-2.731,31.668-13.784,5.445-10.868-3.486-27.466-8.447-36.445C48.6,77.5,35.338,66.341,30.507,52.982,23.388,33.3,35.208,16.761,44.525,0" transform="translate(260.4 7.499)" fill="none" stroke="#da3338" stroke-linecap="round" stroke-linejoin="round" stroke-width="0.25"/>
        <path id="Path_860" data-name="Path 860" d="M25.433,287.276C19.218,253.021,9.893,219.413,4.04,185.116c-2-11.715-7.751-28.355-.43-39.195,5.956-8.818,19.072-10.866,28.342-13.91,33.4-10.965,40.66-30.692,16.526-60.1-6.522-7.945-17.112-14.226-22.092-23.122C16.055,30.336,26.982,16.575,36.836,0" transform="translate(250.479 14.392)" fill="none" stroke="#da3338" stroke-linecap="round" stroke-linejoin="round" stroke-width="0.25"/>
        <path id="Path_861" data-name="Path 861" d="M27.315,277.915c-4.951-33.991-16.527-64.836-24.2-98.018-7.233-31.279-3.058-42.12,25.266-55.82C56.89,110.287,70.711,88.9,43.431,62.77c-7.369-7.059-18.848-11.351-25.04-19.25C5.6,27.205,15.739,15.79,25.922,0" transform="translate(243.448 22.147)" fill="none" stroke="#da3338" stroke-linecap="round" stroke-linejoin="round" stroke-width="0.25"/>
        <path id="Path_862" data-name="Path 862" d="M31.228,267.124c-3.835-33.217-16.2-58.39-26.454-89.309-10.593-31.958-3.627-43.116,21.579-60.55C48.223,102.139,70.495,80.14,42.227,56.56c-8.609-7.181-20.405-9.823-28.795-16.888C-3.034,25.806,6.361,15.788,17.411,0" transform="translate(234.044 29.758)" fill="none" stroke="#da3338" stroke-linecap="round" stroke-linejoin="round" stroke-width="0.25"/>
        <path id="Path_863" data-name="Path 863" d="M37.281,256.025c-1.758-21.067-4.556-38.117-14.432-56.825-4.629-8.771-10.724-16.687-14.738-25.815-12.938-29.419-2.966-42.344,18.4-60.976C44.5,96.723,70.094,70.79,41.232,50.666,31.8,44.092,19.781,42.689,10.45,36.4-7.581,24.254.754,15.6,12.73,0" transform="translate(221.21 36.221)" fill="none" stroke="#da3338" stroke-linecap="round" stroke-linejoin="round" stroke-width="0.25"/>
        <path id="Path_864" data-name="Path 864" d="M45.585,245.74c-.962-20.764-2.617-36.451-14.438-53.749-5.182-7.584-12.332-13.751-16.841-21.857-14.7-26.426-2.742-40.953,15.171-59.734C44.857,94.275,70.716,66.518,43.355,48.341,33.608,41.866,21.6,40.7,11.45,35.265-8.429,24.614,1.151,14.538,13.31,0" transform="translate(203.881 40.529)" fill="none" stroke="#da3338" stroke-linecap="round" stroke-linejoin="round" stroke-width="0.25"/>
        <path id="Path_865" data-name="Path 865" d="M50.317,237.389c0-20.272-.263-35.178-13.831-50.851-5.616-6.487-13.532-10.889-18.527-18.018C1.982,145.712,15.2,129.878,29.94,112.108c13.287-16.02,38.04-44.1,13.5-61.356-9.563-6.724-21.892-8.06-31.9-13.8C-8.957,25.193,1.534,14.671,14.645,0" transform="translate(186.928 41.68)" fill="none" stroke="#da3338" stroke-linecap="round" stroke-linejoin="round" stroke-width="0.25"/>
        <path id="Path_866" data-name="Path 866" d="M50.659,232.1c1.139-18.716,2.736-33.976-11.447-47.786-6.7-6.528-15.727-9.5-21.7-17-14.436-18.159-1.675-33.884,10.106-48.938C40.974,101.309,61.955,75.262,39.282,57.6c-8.905-6.939-20.842-9.38-29.765-16.273C-9.694,26.483,3.978,14.169,17.238,0" transform="translate(170.22 38.664)" fill="none" stroke="#da3338" stroke-linecap="round" stroke-linejoin="round" stroke-width="0.25"/>
        <path id="Path_867" data-name="Path 867" d="M45.476,230.984c2.292-16.957,6.123-33.376-8.008-45.937-7.256-6.45-17.937-7.58-24.185-15.562-11.66-14.9-.661-27.016,8.548-39.307C32.53,115.9,48.2,96.817,39.378,78.195,33.288,65.34,15.7,59.909,6.852,49.339-9.644,29.623,7.037,15,21.272,0" transform="translate(153.937 30.48)" fill="none" stroke="#da3338" stroke-linecap="round" stroke-linejoin="round" stroke-width="0.25"/>
        <path id="Path_868" data-name="Path 868" d="M42.556,238.121C45.61,222,50.344,206.3,36.648,194.111c-7.088-6.305-17.6-7.128-23.751-14.928-11.511-14.587-.417-23.333,9.259-34.176,13.013-14.582,21.864-32.3,13.186-51.741C28.8,78.622,14.036,69.776,5.675,56.421-8.458,33.844,6.516,17.547,21.048,0" transform="translate(140.089 18.586)" fill="none" stroke="#da3338" stroke-linecap="round" stroke-linejoin="round" stroke-width="0.25"/>
        <path id="Path_869" data-name="Path 869" d="M41.288,245.938c3.685-15.717,8.94-30.6-4.615-42.607-7.133-6.316-17.81-6.955-24.035-14.78C.585,173.4,13.5,165.928,23.707,155.626c15.425-15.566,18.32-33.665,9.614-54.067-6.689-15.677-20.5-26.68-28.3-41.636C-7.394,36.1,5.391,19.309,19.673,0" transform="translate(127.251 10.544)" fill="none" stroke="#da3338" stroke-linecap="round" stroke-linejoin="round" stroke-width="0.25"/>
        <path id="Path_870" data-name="Path 870" d="M41.15,253.995c4.415-16.459,9.677-30.1-4.755-42.217-6.833-5.736-16.36-6.647-22.652-13.42-14.872-16.014,1.045-25.037,12.387-35.823,20.395-19.394,15.6-43.838,2.092-66.968-6.8-11.644-16.442-21.522-22.635-33.54C-6.917,37.76,3.571,20.9,17.382,0" transform="translate(115.209 5.828)" fill="none" stroke="#da3338" stroke-linecap="round" stroke-linejoin="round" stroke-width="0.25"/>
        <path id="Path_871" data-name="Path 871" d="M41.879,261.872c4.995-16.649,10.188-29.409-4.459-41.619-7.138-5.951-17.086-6.944-23.7-13.933C-2.73,188.929,17.5,177.942,29.4,166.428c22.62-21.888,14.619-47.857-.724-72.739C21.594,82.2,12.076,72.209,5.81,60.2-6.23,37.133,2.283,20.8,14.632,0" transform="translate(103.518 3.899)" fill="none" stroke="#da3338" stroke-linecap="round" stroke-linejoin="round" stroke-width="0.25"/>
        <path id="Path_872" data-name="Path 872" d="M42.919,269.151c5.583-16.95,10.575-28.89-4.33-41.289-7.487-6.228-17.9-7.391-24.874-14.656-18.171-18.939,6.953-32.851,19.45-45.386,24.882-24.959,15-52.165-3.295-79C22.4,77.859,12.87,68.206,6.353,56.6-5.52,35.459,1,20.12,11.587,0" transform="translate(92.026 4.217)" fill="none" stroke="#da3338" stroke-linecap="round" stroke-linejoin="round" stroke-width="0.25"/>
        <path id="Path_873" data-name="Path 873" d="M42.2,275.412c6.206-17.245,10.984-28.473-4.143-41.132-7.82-6.544-18.7-7.939-26.007-15.515-19.833-20.556,10.361-37.838,23.5-51.477,27.12-28.146,16.3-56.718-5.716-85.257C7.329,52.857-10.269,37.852,6.9,0" transform="translate(82.089 6.244)" fill="none" stroke="#da3338" stroke-linecap="round" stroke-linejoin="round" stroke-width="0.25"/>
        <path id="Path_874" data-name="Path 874" d="M42.843,280.234c6.892-17.429,11.567-28.073-3.682-41.054-8.077-6.875-19.356-8.542-26.924-16.437C-9.01,200.578,26.069,180.058,39.889,165.4c29.285-31.06,17.961-61.31-8.089-91.021C9.715,49.189-8.768,35.36,4.409,0" transform="translate(69.886 9.442)" fill="none" stroke="#da3338" stroke-linecap="round" stroke-linejoin="round" stroke-width="0.25"/>
        <path id="Path_875" data-name="Path 875" d="M42.393,283.2c7.666-17.4,12.482-27.6-2.721-40.961-8.195-7.2-19.761-9.149-27.45-17.347-22.23-23.7,17.206-46.726,31.7-62.159,31.421-33.449,19.241-65.488-10.509-95.8C12.18,45.3-6.829,32.744,2.384,0" transform="translate(57.153 13.271)" fill="none" stroke="#da3338" stroke-linecap="round" stroke-linejoin="round" stroke-width="0.25"/>
        <path id="Path_876" data-name="Path 876" d="M40.283,283.886c8.533-17.058,13.887-26.957-1.044-40.76-8.1-7.493-19.8-9.714-27.41-18.172-22.592-25.114,20.336-49.293,35.467-65.1C80.954,124.7,66.574,91.28,34.219,60.763,14.1,41.787-4.517,30.18.975,0" transform="translate(43.754 17.192)" fill="none" stroke="#da3338" stroke-linecap="round" stroke-linejoin="round" stroke-width="0.25"/>
        <path id="Path_877" data-name="Path 877" d="M35.829,281.878c9.458-16.3,15.917-26.039,1.574-40.357-7.742-7.729-19.363-10.2-26.631-18.838-22.14-26.325,23.071-49.725,38.755-65.336,36.169-36,17.117-69.829-15.89-100.417C14.689,39.372-2.137,27.913.222,0" transform="translate(29.661 20.666)" fill="none" stroke="#da3338" stroke-linecap="round" stroke-linejoin="round" stroke-width="0.25"/>
        <path id="Path_878" data-name="Path 878" d="M28.422,276.753C38.753,261.747,47.095,252,33.776,237.1c-7.035-7.874-18.334-10.557-24.941-19.271-20.656-27.241,25.261-47.386,41.376-62.05C119.394,92.827-6.123,61.283.235,0" transform="translate(14.775 23.156)" fill="none" stroke="#da3338" stroke-linecap="round" stroke-linejoin="round" stroke-width="0.25"/>
      </g>
    </g>
  </g>
</svg>
