<svg xmlns="http://www.w3.org/2000/svg" width="32.277" height="26.409" viewBox="0 0 32.277 26.409">
  <g id="Group_35" data-name="Group 35" transform="translate(-6 -966.362)">
    <path id="Path_488" data-name="Path 488" d="M6.734,966.362A.79.79,0,0,0,6,967.1v22.741a.762.762,0,0,0,.734.734H18.459a4.934,4.934,0,0,1,2.109.367,1.4,1.4,0,0,1,.848,1.2.729.729,0,0,0,1.444,0,1.4,1.4,0,0,1,.848-1.2,4.934,4.934,0,0,1,2.109-.367H37.543a.762.762,0,0,0,.734-.734V967.1a.762.762,0,0,0-.734-.734H25.818a5.071,5.071,0,0,0-3.026.871,3.364,3.364,0,0,0-.653.642,3.365,3.365,0,0,0-.653-.642,5.071,5.071,0,0,0-3.026-.871H6.734Zm.734,1.467H18.459a3.731,3.731,0,0,1,2.166.585,1.822,1.822,0,0,1,.779,1.616v19.7a6.606,6.606,0,0,0-2.946-.63H7.467V967.829Zm18.351,0H36.81V989.1H25.818a7.091,7.091,0,0,0-2.946.63v-19.7a1.822,1.822,0,0,1,.779-1.616,3.73,3.73,0,0,1,2.166-.585Zm-15.783,3.3a.734.734,0,1,0,0,1.467h8.8a.734.734,0,1,0,0-1.467Zm15.4,0a.734.734,0,1,0,0,1.467h8.8a.734.734,0,1,0,0-1.467Zm-15.4,3.3a.734.734,0,0,0,0,1.467h8.8a.734.734,0,0,0,0-1.467Zm15.4,0a.734.734,0,0,0,0,1.467h8.8a.734.734,0,0,0,0-1.467Zm-15.4,3.3a.734.734,0,0,0,0,1.467h8.8a.734.734,0,0,0,0-1.467Zm15.4,0a.734.734,0,0,0,0,1.467h8.8a.734.734,0,0,0,0-1.467Zm-15.4,3.3a.734.734,0,1,0,0,1.467h8.8a.734.734,0,1,0,0-1.467Zm15.4,0a.734.734,0,1,0,0,1.467h8.8a.734.734,0,1,0,0-1.467Zm-15.4,3.3a.734.734,0,0,0,0,1.467h8.8a.734.734,0,0,0,0-1.467Zm15.4,0a.734.734,0,0,0,0,1.467h8.8a.734.734,0,0,0,0-1.467Z" fill="#da3338"/>
  </g>
</svg>
