<svg xmlns="http://www.w3.org/2000/svg" width="32.277" height="32.277" viewBox="0 0 32.277 32.277">
  <g id="pa-icon" transform="translate(251.83 -375.81)">
    <path id="Path_486" data-name="Path 486" d="M-230.5,411.138a.952.952,0,0,0,0,1.22c.151.18,3.737,4.388,8.319,4.388s8.172-4.208,8.319-4.388a.952.952,0,0,0,0-1.22c-.151-.18-3.737-4.388-8.319-4.388S-230.356,410.962-230.5,411.138Zm11.419.612a3.1,3.1,0,0,1-3.1,3.1,3.1,3.1,0,0,1-3.1-3.1,3.1,3.1,0,0,1,3.1-3.1A3.1,3.1,0,0,1-219.085,411.75Zm-7.945-1.228a4.944,4.944,0,0,0-.155,1.228,4.923,4.923,0,0,0,.155,1.228,14.973,14.973,0,0,1-1.44-1.228A14.471,14.471,0,0,1-227.03,410.523Zm9.691,2.462a5,5,0,0,0,.155-1.235,4.922,4.922,0,0,0-.155-1.228,14.438,14.438,0,0,1,1.44,1.231A14.936,14.936,0,0,1-217.339,412.985Z" transform="translate(-13.507 -19.802)" fill="#da3338"/>
    <circle id="Ellipse_177" data-name="Ellipse 177" cx="1.267" cy="1.267" r="1.267" transform="translate(-236.959 390.681)" fill="#da3338"/>
    <circle id="Ellipse_178" data-name="Ellipse 178" cx="0.95" cy="0.95" r="0.95" transform="translate(-225.252 390.998)" fill="#da3338"/>
    <circle id="Ellipse_179" data-name="Ellipse 179" cx="0.95" cy="0.95" r="0.95" transform="translate(-221.454 390.998)" fill="#da3338"/>
    <circle id="Ellipse_180" data-name="Ellipse 180" cx="0.95" cy="0.95" r="0.95" transform="translate(-251.83 390.998)" fill="#da3338"/>
    <circle id="Ellipse_181" data-name="Ellipse 181" cx="0.95" cy="0.95" r="0.95" transform="translate(-248.032 390.998)" fill="#da3338"/>
    <circle id="Ellipse_182" data-name="Ellipse 182" cx="0.95" cy="0.95" r="0.95" transform="translate(-228.589 399.051)" fill="#da3338"/>
    <circle id="Ellipse_183" data-name="Ellipse 183" cx="0.95" cy="0.95" r="0.95" transform="translate(-225.903 401.737)" fill="#da3338"/>
    <circle id="Ellipse_184" data-name="Ellipse 184" cx="0.95" cy="0.95" r="0.95" transform="translate(-247.38 380.26)" fill="#da3338"/>
    <circle id="Ellipse_185" data-name="Ellipse 185" cx="0.95" cy="0.95" r="0.95" transform="translate(-244.695 382.945)" fill="#da3338"/>
    <circle id="Ellipse_186" data-name="Ellipse 186" cx="0.95" cy="0.95" r="0.95" transform="translate(-236.642 402.388)" fill="#da3338"/>
    <circle id="Ellipse_187" data-name="Ellipse 187" cx="0.95" cy="0.95" r="0.95" transform="translate(-236.642 406.186)" fill="#da3338"/>
    <circle id="Ellipse_188" data-name="Ellipse 188" cx="0.95" cy="0.95" r="0.95" transform="translate(-236.642 375.81)" fill="#da3338"/>
    <circle id="Ellipse_189" data-name="Ellipse 189" cx="0.95" cy="0.95" r="0.95" transform="translate(-236.642 379.608)" fill="#da3338"/>
    <circle id="Ellipse_190" data-name="Ellipse 190" cx="0.95" cy="0.95" r="0.95" transform="translate(-244.695 399.051)" fill="#da3338"/>
    <circle id="Ellipse_191" data-name="Ellipse 191" cx="0.95" cy="0.95" r="0.95" transform="translate(-247.38 401.737)" fill="#da3338"/>
    <circle id="Ellipse_192" data-name="Ellipse 192" cx="0.95" cy="0.95" r="0.95" transform="translate(-225.903 380.26)" fill="#da3338"/>
    <circle id="Ellipse_193" data-name="Ellipse 193" cx="0.95" cy="0.95" r="0.95" transform="translate(-228.589 382.945)" fill="#da3338"/>
  </g>
</svg>
