<svg xmlns="http://www.w3.org/2000/svg" width="32.277" height="32.277" viewBox="0 0 32.277 32.277">
  <g id="nc-icon" transform="translate(-2.749 -2.749)">
    <g id="Group_33" data-name="Group 33" transform="translate(2.749 2.749)">
      <path id="Path_487" data-name="Path 487" d="M32.85,16.25a14.151,14.151,0,0,0-2.224-5.369,2.693,2.693,0,0,0-.326-3.4,2.765,2.765,0,0,0-3.4-.324,14.135,14.135,0,0,0-5.373-2.227,2.687,2.687,0,0,0-5.276,0,14.132,14.132,0,0,0-5.372,2.227,2.767,2.767,0,0,0-3.4.325,2.691,2.691,0,0,0-.326,3.4A14.136,14.136,0,0,0,4.925,16.25a2.686,2.686,0,0,0,0,5.275A14.146,14.146,0,0,0,7.15,26.9a2.688,2.688,0,0,0,3.732,3.731A14.149,14.149,0,0,0,16.25,32.85a2.687,2.687,0,0,0,5.276,0,14.14,14.14,0,0,0,5.367-2.223A2.688,2.688,0,0,0,30.625,26.9a14.141,14.141,0,0,0,2.225-5.37,2.687,2.687,0,0,0,0-5.276Zm.21,3.513a1.132,1.132,0,0,1-.724.277,1.152,1.152,0,0,1,0-2.3,1.138,1.138,0,0,1,.724,2.028Zm-1.741-3.319a2.288,2.288,0,0,0-1.548,1.76H23.429a3.415,3.415,0,0,0-.787-1.943l4.485-4.5a2.778,2.778,0,0,0,2.308.13A12.67,12.67,0,0,1,31.319,16.444ZM18.888,33.488a1.2,1.2,0,0,1-1.152-1.152,1.152,1.152,0,0,1,2.3,0,1.2,1.2,0,0,1-1.152,1.152Zm0-29.2A1.2,1.2,0,0,1,20.04,5.439a1.152,1.152,0,0,1-2.3,0,1.2,1.2,0,0,1,1.152-1.152Zm3.074,14.6a3.195,3.195,0,1,1-.108-.768A3.088,3.088,0,0,1,21.961,18.888ZM28.285,8.248a1.056,1.056,0,0,1,.113-.022,1.144,1.144,0,0,1,.814.338,1.2,1.2,0,0,1,0,1.63,1.152,1.152,0,0,1-1.629-1.63A1.133,1.133,0,0,1,28.285,8.248Zm-2.245,2.4-4.528,4.486a3.411,3.411,0,0,0-1.942-.787V8a2.286,2.286,0,0,0,1.76-1.548A12.723,12.723,0,0,1,25.9,8.343,2.691,2.691,0,0,0,26.04,10.647ZM16.273,6.456A2.722,2.722,0,0,0,17.863,8v6.343a4.144,4.144,0,0,0-1.77.787L11.67,10.647a2.679,2.679,0,0,0,.091-2.3A12.46,12.46,0,0,1,16.273,6.456ZM8.563,8.564a1.146,1.146,0,0,1,.816-.338c.039,0,.073.018.112.022a1.139,1.139,0,0,1,.7.316,1.336,1.336,0,0,1,.337.891,1.587,1.587,0,0,1-.335.894h0s0-.077,0-.076a1.119,1.119,0,0,1-.805.285A1.129,1.129,0,0,1,8.248,9.5,1.152,1.152,0,0,1,8.563,8.564Zm-.222,3.3a2.644,2.644,0,0,0,2.309-.126l4.484,4.526a3.418,3.418,0,0,0-.787,1.943H8a2.287,2.287,0,0,0-1.548-1.76A12.793,12.793,0,0,1,8.341,11.862ZM4.287,18.888a1.2,1.2,0,0,1,1.152-1.152,1.152,1.152,0,0,1,0,2.3,1.2,1.2,0,0,1-1.152-1.152ZM6.456,21.5A2.722,2.722,0,0,0,8,19.912h6.343a4.158,4.158,0,0,0,.787,1.771l-4.492,4.428a2.81,2.81,0,0,0-2.292-.087A12.45,12.45,0,0,1,6.456,21.5Zm3.027,8.019a1.1,1.1,0,0,1-1.235-1.236.917.917,0,0,1,.316-.612,1.073,1.073,0,0,1,.813-.247h0a1.072,1.072,0,0,1,.815.248,1.05,1.05,0,0,1,.337.772,1.062,1.062,0,0,1-1.047,1.076Zm2.251-2.394,4.357-4.485a4.151,4.151,0,0,0,1.771.787v6.343a2.722,2.722,0,0,0-1.59,1.548A12.271,12.271,0,0,1,11.8,29.433,2.685,2.685,0,0,0,11.735,27.127Zm9.6,4.193a2.286,2.286,0,0,0-1.76-1.548V23.429a3.42,3.42,0,0,0,1.943-.787l4.506,4.485a2.765,2.765,0,0,0-.131,2.308A12.682,12.682,0,0,1,21.331,31.319Zm7.881-2.107a1.144,1.144,0,0,1-.919.307.907.907,0,0,1-.621-.307,1.071,1.071,0,0,1-.246-.813v0a.867.867,0,0,1,.971-.971h0a1.072,1.072,0,0,1,.814.248,1.025,1.025,0,0,1,.315.656A1.044,1.044,0,0,1,29.212,29.212Zm.213-3.284a2.81,2.81,0,0,0-2.291.119l-4.493-4.365a4.157,4.157,0,0,0,.787-1.77h6.343a2.722,2.722,0,0,0,1.548,1.59A12,12,0,0,1,29.426,25.928Z" transform="translate(-2.749 -2.749)" fill="#da3338"/>
    </g>
  </g>
</svg>
